<?xml version="1.0" encoding="UTF-8" standalone="no"?>
<svg width="100%" height="100%" viewBox="0 0 24 24" version="1.1" xmlns="http://www.w3.org/2000/svg" xmlns:xlink="http://www.w3.org/1999/xlink" xml:space="preserve" xmlns:serif="http://www.serif.com/" style="fill-rule:evenodd;clip-rule:evenodd;stroke-linejoin:round;stroke-miterlimit:2;">
  <g transform="matrix(1,0,0,1,27.009,-39.239)">
    <path d="M-3.264,51.509C-3.264,50.719 -3.334,49.969 -3.454,49.239L-14.754,49.239L-14.754,53.749L-8.284,53.749C-8.574,55.229 -9.424,56.479 -10.684,57.329L-10.684,60.329L-6.824,60.329C-4.564,58.239 -3.264,55.159 -3.264,51.509Z" style="fill:rgb(66,133,244);fill-rule:nonzero;"/>
    <path d="M-14.754,63.239C-11.514,63.239 -8.804,62.159 -6.824,60.329L-10.684,57.329C-11.764,58.049 -13.134,58.489 -14.754,58.489C-17.884,58.489 -20.534,56.379 -21.484,53.529L-25.464,53.529L-25.464,56.619C-23.494,60.539 -19.444,63.239 -14.754,63.239Z" style="fill:rgb(52,168,83);fill-rule:nonzero;"/>
    <path d="M-21.484,53.529C-21.734,52.809 -21.864,52.039 -21.864,51.239C-21.864,50.439 -21.724,49.669 -21.484,48.949L-21.484,45.859L-25.464,45.859C-26.284,47.479 -26.754,49.299 -26.754,51.239C-26.754,53.179 -26.284,54.999 -25.464,56.619L-21.484,53.529Z" style="fill:rgb(251,188,5);fill-rule:nonzero;"/>
    <path d="M-14.754,43.989C-12.984,43.989 -11.404,44.599 -10.154,45.789L-6.734,42.369C-8.804,40.429 -11.514,39.239 -14.754,39.239C-19.444,39.239 -23.494,41.939 -25.464,45.859L-21.484,48.949C-20.534,46.099 -17.884,43.989 -14.754,43.989Z" style="fill:rgb(234,67,53);fill-rule:nonzero;"/>
  </g>
</svg>
